# xmcd CD database file
#
# Track frame offsets:
#	150
#	17782
#	34859
#	59414
#
# Disc length: 1425 seconds
#
# Revision: 2
# Processed by: cddbd v1.5.1PL2 Copyright (c) Steve Scherf et al.
# Submitted via: CDex 1.51
#
DISCID=2e058f04
DTITLE=Pussycat Dolls - Buttons
DYEAR=2006
DGENRE=R&B
TTITLE0=Buttons
TTITLE1=Buttons (Album Version)
TTITLE2=Flirt
TTITLE3=Buttons (Video)
EXTD=YEAR: 2006
EXTT0=
EXTT1=
EXTT2=
EXTT3=
PLAYORDER=
